<svg xmlns="http://www.w3.org/2000/svg" width="27.584" height="27.781" viewBox="0 0 27.584 27.781">
  <g id="layer1" transform="translate(0 0)">
    <path id="path4535" d="M-451.792,161.013c-.514-.514-.565-1.021-.252-2.51a14.1,14.1,0,0,1,7.548-9.6l.67-.31-.777-.855a9.691,9.691,0,0,1-1.993-3.7,10.515,10.515,0,0,1,.007-4,8.67,8.67,0,0,1,5.755-5.993,6.82,6.82,0,0,1,2.4-.234,5.784,5.784,0,0,1,2.653.373,8.581,8.581,0,0,1,5.37,5.855,10.517,10.517,0,0,1,.007,4,9.693,9.693,0,0,1-1.993,3.7l-.777.855.673.31a15.556,15.556,0,0,1,5.491,4.714,14.328,14.328,0,0,1,2.18,5.307c.252,1.344.353,1.718-.5,2.31s-7.88.247-14.258.309-11.262-.09-11.262-.09a1.128,1.128,0,0,1-.943-.44Z" transform="translate(452.239 -133.807)" fill="#fff"/>
  </g>
</svg>
