<svg xmlns="http://www.w3.org/2000/svg" width="23.291" height="36.824" viewBox="0 0 23.291 36.824">
  <path id="path4502" d="M-214.515,107.927a5,5,0,0,1-3.466-4.834c0-3.145,2.082-4.681,8.623-6.364a3.915,3.915,0,0,0,2.125-1.167c.2-.393,1.451-3.9,2.779-7.784a60.722,60.722,0,0,1,3.035-7.8,2.146,2.146,0,0,1,3.469.294c.4.869.124,1.988-1.821,7.486-1.258,3.556-2.134,6.465-1.948,6.465a8,8,0,0,0,1.946-1.56c1.274-1.236,2.831,2.834,2.229,3.372a24.25,24.25,0,0,1-3.54,2c-2.813,1.366-2.874,1.431-3.807,4.023-1.4,3.9-3.334,5.647-6.7,6.069a8.458,8.458,0,0,1-2.921-.2Zm4.35-5.384c.836-1.242.883-1.476.315-1.592-1.062-.218-3.334,1.329-3.485,2.372C-213.562,104.888-211.384,104.352-210.165,102.543Zm11.173-26.963a2.519,2.519,0,0,1,1.92-4.23,2.726,2.726,0,0,1,2.382,2.588,3.026,3.026,0,0,1-2.639,2.4,2.584,2.584,0,0,1-1.664-.761Z" transform="translate(217.981 -71.35)" fill="#fff"/>
</svg>
