<svg xmlns="http://www.w3.org/2000/svg" width="29.808" height="34.652" viewBox="0 0 29.808 34.652">
  <path id="path4511" d="M75.248,100.67A2.006,2.006,0,0,1,74.1,99.536c-.132-.293-.137-.855-.137-16.139V67.562l.158-.347a2.14,2.14,0,0,1,.817-.949c.572-.342.519-.354,7.347,1.593,5.469,1.559,6.459,1.865,6.708,2.071a2.125,2.125,0,0,1,.7,1.136c.043.184.074,1.649.074,3.546v3.232H79.795V88.95h9.973v3.232c0,1.9-.031,3.362-.074,3.546a2.125,2.125,0,0,1-.7,1.136c-.249.206-1.234.51-6.694,2.064-3.521,1-6.507,1.819-6.636,1.815a1.647,1.647,0,0,1-.419-.074Zm19.8-11.025V87.562H80.968v-8.33H95.047V75.067L99.41,79.2c2.4,2.272,4.363,4.162,4.363,4.2s-1.963,1.928-4.363,4.2l-4.363,4.131Z" transform="translate(-73.965 -66.091)" fill="#fff"/>
</svg>
