<svg xmlns="http://www.w3.org/2000/svg" width="32" height="32" viewBox="0 0 32 32">
  <path id="Subtraction_1" data-name="Subtraction 1" d="M-1228-2062a15.9,15.9,0,0,1-11.314-4.687A15.9,15.9,0,0,1-1244-2078a15.9,15.9,0,0,1,4.686-11.313A15.9,15.9,0,0,1-1228-2094a15.894,15.894,0,0,1,11.313,4.687A15.9,15.9,0,0,1-1212-2078a15.9,15.9,0,0,1-4.686,11.314A15.894,15.894,0,0,1-1228-2062Zm.222-8.582a1.307,1.307,0,0,0-.952.4,1.257,1.257,0,0,0-.4.952,1.279,1.279,0,0,0,.4.952,1.352,1.352,0,0,0,.952.391,1.355,1.355,0,0,0,.952-.391,1.283,1.283,0,0,0,.4-.952,1.259,1.259,0,0,0-.4-.952A1.311,1.311,0,0,0-1227.777-2070.582Zm-.013-13.623a3.807,3.807,0,0,1,1.086.153,2.714,2.714,0,0,1,.9.457,2.2,2.2,0,0,1,.617.757,2.306,2.306,0,0,1,.226,1.038,2.572,2.572,0,0,1-.311,1.251,5.94,5.94,0,0,1-.775,1.087c-.311.347-.652.692-1.013,1.025a11.835,11.835,0,0,0-1.013,1.056,5.8,5.8,0,0,0-.775,1.178,3.145,3.145,0,0,0-.311,1.41,6.121,6.121,0,0,0,.085,1.007,5.211,5.211,0,0,0,.2.823h1.966a7.175,7.175,0,0,1-.269-.775,3.65,3.65,0,0,1-.134-1.02,2.386,2.386,0,0,1,.318-1.209,5.637,5.637,0,0,1,.8-1.056c.323-.34.675-.682,1.044-1.019a10.3,10.3,0,0,0,1.043-1.105,5.839,5.839,0,0,0,.8-1.3,3.925,3.925,0,0,0,.317-1.612,3.77,3.77,0,0,0-.354-1.672,3.439,3.439,0,0,0-.97-1.2,4.333,4.333,0,0,0-1.435-.726,6.1,6.1,0,0,0-1.745-.244,7.212,7.212,0,0,0-3.87,1.172v2.148A4.757,4.757,0,0,1-1227.79-2084.2Z" transform="translate(1244 2094)" fill="#fff"/>
</svg>
