<svg xmlns="http://www.w3.org/2000/svg" width="74.836" height="20.828" viewBox="0 0 74.836 20.828">
  <path id="path4502" d="M-216.061,91.162a2.77,2.77,0,0,1-1.92-2.678c0-1.742,1.153-2.593,4.777-3.526a2.169,2.169,0,0,0,1.177-.646c.111-.217.8-2.158,1.54-4.312a33.641,33.641,0,0,1,1.681-4.32,1.189,1.189,0,0,1,1.922.163c.219.481.068,1.1-1.009,4.147a19.379,19.379,0,0,0-1.079,3.581,4.432,4.432,0,0,0,1.078-.864c.706-.685,1.071-1.377,1.762-3.338,1.218-3.457,2.373-4.378,5.043-4.02a2.56,2.56,0,0,1,1.743.979c.734.8.771.92.649,2.1a6.16,6.16,0,0,1-.617,2.079c-.6,1.013-.345,1.41.608.954.561-.268.795-.711,1.609-3.046a13.173,13.173,0,0,1,1.267-2.932c.762-.483,2.042.033,2.042.823a33.447,33.447,0,0,1-1.037,3.246,33.157,33.157,0,0,0-1.037,3.249c0,.17.2.309.437.309.827,0,1.742-1.436,2.766-4.34a17.99,17.99,0,0,1,1.331-3.157,1.26,1.26,0,0,1,1.8.119c.4.441.375.564-.754,3.78a19.687,19.687,0,0,0-1.03,3.461c.7.7,1.965-.67,2.881-3.113a7.421,7.421,0,0,0,.669-3.363c-.046-1.18.026-1.511.416-1.9a1.694,1.694,0,0,1,1.008-.472,1.935,1.935,0,0,1,1.538,1.454c0,.234.417.583,1.053.882,1.908.9,2.142,1.829,1.15,4.581-.6,1.662-.6,2.069-.006,2.069.441,0,.88-.908,2.1-4.334a29.144,29.144,0,0,1,1.25-3.169,6.022,6.022,0,0,1,2.434-.289c2.147-.023,2.234,0,2.879.641.89.889.865,1.736-.133,4.528a9.974,9.974,0,0,0-.678,2.429c.177.286.842.225,1.3-.12a14.362,14.362,0,0,0,1.426-3.256c1.329-3.813,1.632-4.138,3.887-4.172a13.231,13.231,0,0,0,2.316-.2c.892-.243,1.769.185,1.769.865a26.541,26.541,0,0,1-1.031,3.607,17.547,17.547,0,0,0-.908,3.274c.175.284.838.233,1.27-.1.575-.439.94-1.305,2.859-6.8,1.873-5.36,2.111-5.762,3.242-5.478,1,.251.911.974-.7,5.69-.839,2.455-1.677,4.854-1.861,5.332-.47,1.218-.427,1.551.2,1.551.891,0,1.47-.905,2.58-4.035a20.713,20.713,0,0,1,1.427-3.393,1.193,1.193,0,0,1,1.632-.129c.447.447.33,1.177-.645,4.043-1.085,3.187-1.12,3.515-.381,3.515.826,0,1.22-.612,2.24-3.474a15.032,15.032,0,0,1,1.44-3.18c1.514-1.651,4.91-1.522,5.812.222a4.439,4.439,0,0,1-.492,4.133.6.6,0,0,0-.121.643c.4.641,2.064-.6,2.452-1.818a1.086,1.086,0,0,1,1.656-.377c.507.507.225,1.71-.646,2.768a3.951,3.951,0,0,1-3.214,1.623,2.343,2.343,0,0,0-1.644.541,3.937,3.937,0,0,1-4.377.57c-.8-.407-.857-.408-1.6-.01a3.883,3.883,0,0,1-3.312.07,1.207,1.207,0,0,0-1.463,0,3.747,3.747,0,0,1-3.087.028c-.558-.291-.741-.288-1.491.026-1.025.428-2.924.31-3.449-.214-.322-.322-.427-.314-1.077.082a3.015,3.015,0,0,1-2.92.089,1.1,1.1,0,0,0-1.36,0c-1.308.676-3.358.265-3.921-.788-.407-.76-.263-2.049.454-4.082.84-2.381.852-2.613.132-2.613-.69,0-1.324.771-1.728,2.1a25.173,25.173,0,0,1-2.273,5.442c-.6.469-3.26.365-4.124-.162-1.172-.715-1.341-1.769-.625-3.9.554-1.65.563-1.753.174-2.037a.945.945,0,0,0-.622-.228,16.107,16.107,0,0,0-.823,1.949s-1.46,3.194-2.642,4.077c-.918.685-3.156.675-3.849-.018l-.494-.494-.812.551c-1.3.883-3.342.579-3.968-.591-.347-.649-2-.572-2.77.128a4.049,4.049,0,0,1-4.576.54c-.685-.417-.819-.433-1.152-.135a13.436,13.436,0,0,1-1.961,1.107c-1.558.757-1.592.793-2.109,2.229-.778,2.161-1.847,3.128-3.713,3.362a4.686,4.686,0,0,1-1.618-.11Zm2.41-2.983c.463-.688.489-.818.175-.882a2.272,2.272,0,0,0-1.931,1.314C-215.533,89.479-214.326,89.182-213.652,88.18Zm10.727-5.361c.367-.269.371-.348.04-1.011a1.5,1.5,0,0,1,.8-2.222c1.306-.493,1.39-2.235.107-2.235-.822,0-1.159.507-1.932,2.906-.548,1.7-.654,2.295-.452,2.537a1.026,1.026,0,0,0,1.439.025Zm34.116-.227a15.188,15.188,0,0,0,.936-2.417c.464-1.473.543-2,.351-2.362-.568-1.061-1.2-.306-2.074,2.46a9.361,9.361,0,0,0-.586,2.592c.26.42,1.02.269,1.373-.273Zm18.113.163c.223-.269.23-.42.028-.622a2.215,2.215,0,0,1-.041-2.009,1.819,1.819,0,0,1,.89-.653,1.07,1.07,0,0,0,.788-.874c.175-.918-.02-1.247-.74-1.247-1.011,0-1.214.351-2.407,4.147-.226.719-.253,1.125-.089,1.325a1.153,1.153,0,0,0,1.571-.067Zm-56.767-9.512A1.4,1.4,0,0,1-206.4,70.9a1.51,1.51,0,0,1,1.32,1.434,1.676,1.676,0,0,1-1.462,1.331,1.431,1.431,0,0,1-.922-.421Zm51.841,0a1.379,1.379,0,0,1,.9-2.343,1.652,1.652,0,0,1,1.481,1.382,1.655,1.655,0,0,1-1.462,1.382,1.431,1.431,0,0,1-.922-.421Z" transform="translate(217.981 -70.47)" fill="#fff"/>
</svg>
