<svg xmlns="http://www.w3.org/2000/svg" width="37.668" height="27.976" viewBox="0 0 37.668 27.976">
  <path id="path4522" d="M-365.6,144.985a2.462,2.462,0,0,1-.332-.162c-.1-.058-.99-.925-1.984-1.927-1.964-1.98-4.64-4.672-8.761-8.813-3.008-3.023-2.9-2.89-2.9-3.567,0-.631,0-.624,2-2.622,1.035-1.03,1.805-1.762,1.9-1.8a1.708,1.708,0,0,1,1.44.075c.1.06,1.045.978,2.1,2.041s3.057,3.082,4.455,4.487l2.542,2.555,8.674-8.668c7.078-7.073,8.715-8.687,8.9-8.774a1.18,1.18,0,0,1,.6-.106c.645,0,.637-.007,2.605,1.96s1.967,1.963,1.961,2.609c-.006.694,1-.365-11.037,11.675-5.932,5.935-10.84,10.821-10.906,10.857a1.445,1.445,0,0,1-.768.228,1.525,1.525,0,0,1-.49-.043Z" transform="matrix(1, -0.017, 0.017, 1, 377.466, -123.656)" fill="#fff"/>
</svg>
