<svg xmlns="http://www.w3.org/2000/svg" width="52" height="52" viewBox="0 0 52 52">
  <g id="Group_94" data-name="Group 94" transform="translate(-15 -13)">
    <circle id="Ellipse_26" data-name="Ellipse 26" cx="26" cy="26" r="26" transform="translate(15 13)" fill="#2d343c" opacity="0.6"/>
    <g id="layer1" transform="translate(22.007 20.003)">
      <path id="path4518" d="M75.509,161.692c-.434-.036-.821-.146-.858-.244s-.255-1.245-.482-2.548l-.414-2.37-1.186-.492c-.652-.271-1.306-.564-1.452-.651-.22-.131-.629.1-2.382,1.322-1.811,1.267-2.159,1.457-2.416,1.322a39.182,39.182,0,0,1-3.913-3.913c-.135-.257.056-.606,1.33-2.427,1.057-1.511,1.446-2.18,1.341-2.307a11.427,11.427,0,0,1-.652-1.439l-.5-1.259-2.452-.426a16.874,16.874,0,0,1-2.6-.573,14.626,14.626,0,0,1-.149-2.962,14.66,14.66,0,0,1,.149-2.963,16.532,16.532,0,0,1,2.593-.566l2.444-.418.211-.521c.116-.287.407-.946.646-1.466l.435-.944-1.474-2.108c-1.262-1.8-1.452-2.151-1.316-2.407a39.182,39.182,0,0,1,3.913-3.913c.256-.135.6.055,2.419,1.324,1.953,1.366,2.145,1.467,2.456,1.291.186-.1.837-.4,1.448-.645l1.111-.454.426-2.452a16.878,16.878,0,0,1,.573-2.6,14.627,14.627,0,0,1,2.962-.149,14.662,14.662,0,0,1,2.963.149,16.527,16.527,0,0,1,.566,2.593l.418,2.444.521.211c.287.116.946.407,1.466.646l.944.435,2.108-1.474c1.8-1.262,2.151-1.452,2.407-1.316a39.175,39.175,0,0,1,3.913,3.913c.135.257-.056.606-1.331,2.427-1.081,1.546-1.447,2.178-1.336,2.311a11.141,11.141,0,0,1,.657,1.44l.5,1.256,2.447.425a16.823,16.823,0,0,1,2.6.572,14.626,14.626,0,0,1,.149,2.962,14.659,14.659,0,0,1-.149,2.963,16.524,16.524,0,0,1-2.592.566l-2.444.418-.211.521c-.116.287-.407.946-.646,1.466l-.435.944,1.474,2.108c1.262,1.8,1.452,2.151,1.316,2.407a39.177,39.177,0,0,1-3.913,3.913c-.256.135-.605-.056-2.421-1.326-2.112-1.477-2.123-1.483-2.531-1.247a15.568,15.568,0,0,1-1.446.653l-1.037.416-.425,2.446a20.69,20.69,0,0,1-.538,2.561,33.868,33.868,0,0,1-5.2.158Zm3.912-12.046a7.129,7.129,0,1,0-8.629-5.215,7.179,7.179,0,0,0,8.629,5.215Z" transform="translate(-58.721 -123.732)" fill="#fff" opacity="0.5"/>
    </g>
  </g>
</svg>
