<svg xmlns="http://www.w3.org/2000/svg" width="34" height="22" viewBox="0 0 34 22">
  <g id="visa-light-large" transform="translate(0 -0.78)">
    <rect id="card_bg" width="34" height="22" rx="4" transform="translate(0 0.78)" fill="#dfe3e8"/>
    <path id="visa-logo" d="M12.116,6.78a5.076,5.076,0,0,1-1.854-.349l.306-1.424a3.574,3.574,0,0,0,1.692.428h.045c.507-.007,1.018-.21,1.018-.648.007-.279-.232-.5-.883-.819s-1.488-.838-1.488-1.788C10.953.9,12.124,0,13.8,0a4.568,4.568,0,0,1,1.6.292l-.3,1.424a3.213,3.213,0,0,0-1.367-.308c-.1,0-.21.005-.314.015-.492.065-.712.322-.712.549,0,.276.353.461.8.695.709.371,1.591.833,1.586,1.919l.036-.057c-.007,1.367-1.173,2.25-2.969,2.25Zm4.719-.057H15.041L17.6.62A.774.774,0,0,1,18.31.135h1.424l1.381,6.587h-1.58l-.206-.983H17.184l-.349.983ZM18.53,1.916l-.9,2.471H19.05ZM9.044,6.7H7.335L8.76.114h1.709L9.044,6.7ZM5.306,6.68H3.447L2.087,1.417A.716.716,0,0,0,1.681.84,7.062,7.062,0,0,0,0,.285L.043.092h2.9a.8.8,0,0,1,.79.67l.712,3.81L6.217.092H8.069L5.306,6.679Z" transform="translate(6.523 7.988)" fill="#2a2a6c"/>
  </g>
</svg>
